<svg width="76" height="91" viewBox="0 0 76 91" fill="none" xmlns="http://www.w3.org/2000/svg">
<circle cx="38" cy="38" r="38" fill="#EAF3FB"/>
<path d="M34.5833 20.75H22.8333C22.314 20.75 21.8158 20.9519 21.4486 21.3114C21.0813 21.6708 20.875 22.1583 20.875 22.6667V34.1667C20.875 34.675 21.0813 35.1625 21.4486 35.522C21.8158 35.8814 22.314 36.0833 22.8333 36.0833H34.5833C35.1027 36.0833 35.6008 35.8814 35.9681 35.522C36.3353 35.1625 36.5417 34.675 36.5417 34.1667V22.6667C36.5417 22.1583 36.3353 21.6708 35.9681 21.3114C35.6008 20.9519 35.1027 20.75 34.5833 20.75ZM54.1667 39.9167H42.4167C41.8973 39.9167 41.3992 40.1186 41.0319 40.478C40.6647 40.8375 40.4583 41.325 40.4583 41.8333V53.3333C40.4583 53.8417 40.6647 54.3292 41.0319 54.6886C41.3992 55.0481 41.8973 55.25 42.4167 55.25H54.1667C54.6861 55.25 55.1842 55.0481 55.5514 54.6886C55.9187 54.3292 56.125 53.8417 56.125 53.3333V41.8333C56.125 41.325 55.9187 40.8375 55.5514 40.478C55.1842 40.1186 54.6861 39.9167 54.1667 39.9167ZM48.2917 20.75C43.9716 20.75 40.4583 24.1885 40.4583 28.4167C40.4583 32.6448 43.9716 36.0833 48.2917 36.0833C52.6118 36.0833 56.125 32.6448 56.125 28.4167C56.125 24.1885 52.6118 20.75 48.2917 20.75ZM28.7083 39.9167C24.3882 39.9167 20.875 43.3552 20.875 47.5833C20.875 51.8115 24.3882 55.25 28.7083 55.25C33.0284 55.25 36.5417 51.8115 36.5417 47.5833C36.5417 43.3552 33.0284 39.9167 28.7083 39.9167Z" fill="#2832C2"/>
<path d="M8.8457 85.1934H10.457C10.4141 85.7637 10.2559 86.2695 9.98242 86.7109C9.70898 87.1484 9.32812 87.4922 8.83984 87.7422C8.35156 87.9922 7.75977 88.1172 7.06445 88.1172C6.5293 88.1172 6.04688 88.0234 5.61719 87.8359C5.19141 87.6445 4.82617 87.373 4.52148 87.0215C4.2207 86.666 3.99023 86.2402 3.83008 85.7441C3.66992 85.2441 3.58984 84.6836 3.58984 84.0625V83.4121C3.58984 82.791 3.67188 82.2305 3.83594 81.7305C4 81.2305 4.23438 80.8047 4.53906 80.4531C4.84766 80.0977 5.2168 79.8242 5.64648 79.6328C6.08008 79.4414 6.56445 79.3457 7.09961 79.3457C7.79492 79.3457 8.38281 79.4746 8.86328 79.7324C9.34375 79.9863 9.7168 80.3359 9.98242 80.7812C10.248 81.2266 10.4082 81.7383 10.4629 82.3164H8.85156C8.82031 81.957 8.74219 81.6523 8.61719 81.4023C8.49609 81.1523 8.3125 80.9629 8.06641 80.834C7.82422 80.7012 7.50195 80.6348 7.09961 80.6348C6.78711 80.6348 6.51172 80.6934 6.27344 80.8105C6.03906 80.9277 5.84375 81.1035 5.6875 81.3379C5.53125 81.5684 5.41406 81.8574 5.33594 82.2051C5.25781 82.5488 5.21875 82.9473 5.21875 83.4004V84.0625C5.21875 84.4961 5.25391 84.8848 5.32422 85.2285C5.39453 85.5723 5.50391 85.8633 5.65234 86.1016C5.80078 86.3398 5.99219 86.5215 6.22656 86.6465C6.46094 86.7715 6.74023 86.834 7.06445 86.834C7.45898 86.834 7.7793 86.7715 8.02539 86.6465C8.27539 86.5215 8.46484 86.3379 8.59375 86.0957C8.72656 85.8535 8.81055 85.5527 8.8457 85.1934ZM15.0977 80.7637L12.666 88H10.9609L14.1484 79.4688H15.2383L15.0977 80.7637ZM17.1309 88L14.6875 80.7637L14.541 79.4688H15.6367L18.8418 88H17.1309ZM17.0195 84.8301V86.1016H12.4434V84.8301H17.0195ZM22.6445 79.4688V88H21.0391V79.4688H22.6445ZM25.293 79.4688V80.7402H18.4199V79.4688H25.293ZM32.0195 86.7344V88H27.4844V86.7344H32.0195ZM27.9766 79.4688V88H26.3652V79.4688H27.9766ZM31.4277 82.9902V84.2266H27.4844V82.9902H31.4277ZM32.002 79.4688V80.7402H27.4844V79.4688H32.002ZM39.7949 83.5879V86.9102C39.6699 87.0703 39.4727 87.2441 39.2031 87.4316C38.9375 87.6191 38.5898 87.7812 38.1602 87.918C37.7305 88.0508 37.2031 88.1172 36.5781 88.1172C36.0352 88.1172 35.5391 88.0273 35.0898 87.8477C34.6406 87.6641 34.2539 87.3965 33.9297 87.0449C33.6055 86.6934 33.3555 86.2637 33.1797 85.7559C33.0039 85.248 32.916 84.668 32.916 84.0156V83.4531C32.916 82.8008 32.998 82.2207 33.1621 81.7129C33.3301 81.2051 33.5684 80.7754 33.877 80.4238C34.1895 80.0723 34.5625 79.8047 34.9961 79.6211C35.4336 79.4375 35.9219 79.3457 36.4609 79.3457C37.1836 79.3457 37.7773 79.4648 38.2422 79.7031C38.7109 79.9414 39.0703 80.2695 39.3203 80.6875C39.5703 81.1016 39.7266 81.5781 39.7891 82.1172H38.2188C38.1758 81.8203 38.0898 81.5605 37.9609 81.3379C37.832 81.1113 37.6484 80.9355 37.4102 80.8105C37.1758 80.6816 36.8711 80.6172 36.4961 80.6172C36.1797 80.6172 35.9004 80.6797 35.6582 80.8047C35.416 80.9297 35.2129 81.1113 35.0488 81.3496C34.8848 81.5879 34.7598 81.8828 34.6738 82.2344C34.5918 82.5859 34.5508 82.9883 34.5508 83.4414V84.0156C34.5508 84.4727 34.5977 84.8789 34.6914 85.2344C34.7852 85.5859 34.9199 85.8828 35.0957 86.125C35.2754 86.3633 35.4961 86.5449 35.7578 86.6699C36.0234 86.791 36.3242 86.8516 36.6602 86.8516C36.9648 86.8516 37.2168 86.8262 37.416 86.7754C37.6191 86.7207 37.7812 86.6562 37.9023 86.582C38.0234 86.5078 38.1172 86.4355 38.1836 86.3652V84.7656H36.4902V83.5879H39.7949ZM48.2266 83.5176V83.957C48.2266 84.6016 48.1406 85.1816 47.9688 85.6973C47.7969 86.209 47.5527 86.6445 47.2363 87.0039C46.9199 87.3633 46.543 87.6387 46.1055 87.8301C45.668 88.0215 45.1816 88.1172 44.6465 88.1172C44.1191 88.1172 43.6348 88.0215 43.1934 87.8301C42.7559 87.6387 42.377 87.3633 42.0566 87.0039C41.7363 86.6445 41.4883 86.209 41.3125 85.6973C41.1367 85.1816 41.0488 84.6016 41.0488 83.957V83.5176C41.0488 82.8691 41.1367 82.2891 41.3125 81.7773C41.4883 81.2656 41.7344 80.8301 42.0508 80.4707C42.3672 80.1074 42.7441 79.8301 43.1816 79.6387C43.623 79.4473 44.1074 79.3516 44.6348 79.3516C45.1699 79.3516 45.6562 79.4473 46.0938 79.6387C46.5312 79.8301 46.9082 80.1074 47.2246 80.4707C47.5449 80.8301 47.791 81.2656 47.9629 81.7773C48.1387 82.2891 48.2266 82.8691 48.2266 83.5176ZM46.5977 83.957V83.5059C46.5977 83.041 46.5547 82.6328 46.4688 82.2812C46.3828 81.9258 46.2559 81.627 46.0879 81.3848C45.9199 81.1426 45.7129 80.9609 45.4668 80.8398C45.2207 80.7148 44.9434 80.6523 44.6348 80.6523C44.3223 80.6523 44.0449 80.7148 43.8027 80.8398C43.5645 80.9609 43.3613 81.1426 43.1934 81.3848C43.0254 81.627 42.8965 81.9258 42.8066 82.2812C42.7207 82.6328 42.6777 83.041 42.6777 83.5059V83.957C42.6777 84.418 42.7207 84.8262 42.8066 85.1816C42.8965 85.5371 43.0254 85.8379 43.1934 86.084C43.3652 86.3262 43.5723 86.5098 43.8145 86.6348C44.0566 86.7598 44.334 86.8223 44.6465 86.8223C44.959 86.8223 45.2363 86.7598 45.4785 86.6348C45.7207 86.5098 45.9238 86.3262 46.0879 86.084C46.2559 85.8379 46.3828 85.5371 46.4688 85.1816C46.5547 84.8262 46.5977 84.418 46.5977 83.957ZM49.5918 79.4688H52.6914C53.3398 79.4688 53.8965 79.5664 54.3613 79.7617C54.8262 79.957 55.1836 80.2461 55.4336 80.6289C55.6836 81.0117 55.8086 81.4824 55.8086 82.041C55.8086 82.4824 55.7305 82.8652 55.5742 83.1895C55.418 83.5137 55.1973 83.7852 54.9121 84.0039C54.6309 84.2227 54.2988 84.3945 53.916 84.5195L53.4121 84.7773H50.6758L50.6641 83.5059H52.709C53.041 83.5059 53.3164 83.4473 53.5352 83.3301C53.7539 83.2129 53.918 83.0508 54.0273 82.8438C54.1406 82.6367 54.1973 82.4004 54.1973 82.1348C54.1973 81.8496 54.1426 81.6035 54.0332 81.3965C53.9238 81.1855 53.7578 81.0234 53.5352 80.9102C53.3125 80.7969 53.0312 80.7402 52.6914 80.7402H51.2031V88H49.5918V79.4688ZM54.4082 88L52.4336 84.1797L54.1387 84.1738L56.1367 87.918V88H54.4082ZM58.9375 79.4688V88H57.3262V79.4688H58.9375ZM66.332 86.7344V88H61.7969V86.7344H66.332ZM62.2891 79.4688V88H60.6777V79.4688H62.2891ZM65.7402 82.9902V84.2266H61.7969V82.9902H65.7402ZM66.3145 79.4688V80.7402H61.7969V79.4688H66.3145ZM71.916 85.7852C71.916 85.6211 71.8906 85.4746 71.8398 85.3457C71.793 85.2129 71.7051 85.0938 71.5762 84.9883C71.4512 84.8789 71.2734 84.7734 71.043 84.6719C70.8164 84.5664 70.5234 84.457 70.1641 84.3438C69.7656 84.2188 69.3945 84.0781 69.0508 83.9219C68.707 83.7656 68.4043 83.584 68.1426 83.377C67.8848 83.1699 67.6836 82.9316 67.5391 82.6621C67.3945 82.3887 67.3223 82.0723 67.3223 81.7129C67.3223 81.3613 67.3965 81.041 67.5449 80.752C67.6973 80.4629 67.9121 80.2148 68.1895 80.0078C68.4668 79.7969 68.793 79.6348 69.168 79.5215C69.5469 79.4082 69.9648 79.3516 70.4219 79.3516C71.0547 79.3516 71.6016 79.4668 72.0625 79.6973C72.5273 79.9277 72.8867 80.2402 73.1406 80.6348C73.3945 81.0293 73.5215 81.4727 73.5215 81.9648H71.916C71.916 81.6992 71.8594 81.4648 71.7461 81.2617C71.6367 81.0586 71.4688 80.8984 71.2422 80.7812C71.0195 80.6641 70.7383 80.6055 70.3984 80.6055C70.0703 80.6055 69.7969 80.6543 69.5781 80.752C69.3633 80.8496 69.2012 80.9824 69.0918 81.1504C68.9863 81.3184 68.9336 81.5059 68.9336 81.7129C68.9336 81.8691 68.9707 82.0098 69.0449 82.1348C69.1191 82.2559 69.2305 82.3711 69.3789 82.4805C69.5273 82.5859 69.7109 82.6855 69.9297 82.7793C70.1523 82.8691 70.4102 82.959 70.7031 83.0488C71.1719 83.1895 71.582 83.3457 71.9336 83.5176C72.2891 83.6895 72.584 83.8848 72.8184 84.1035C73.0566 84.3223 73.2344 84.5684 73.3516 84.8418C73.4727 85.1152 73.5332 85.4258 73.5332 85.7734C73.5332 86.1406 73.4609 86.4688 73.3164 86.7578C73.1719 87.0469 72.9648 87.293 72.6953 87.4961C72.4258 87.6992 72.1016 87.8535 71.7227 87.959C71.3477 88.0645 70.9277 88.1172 70.4629 88.1172C70.0488 88.1172 69.6387 88.0625 69.2324 87.9531C68.8301 87.8398 68.4648 87.6719 68.1367 87.4492C67.8086 87.2227 67.5469 86.9375 67.3516 86.5938C67.1562 86.2461 67.0586 85.8398 67.0586 85.375H68.6758C68.6758 85.6445 68.7188 85.875 68.8047 86.0664C68.8945 86.2539 69.0195 86.4082 69.1797 86.5293C69.3438 86.6465 69.5352 86.7324 69.7539 86.7871C69.9727 86.8418 70.209 86.8691 70.4629 86.8691C70.791 86.8691 71.0605 86.8242 71.2715 86.7344C71.4863 86.6406 71.6465 86.5117 71.752 86.3477C71.8613 86.1836 71.916 85.9961 71.916 85.7852Z" fill="#3E3E40"/>
</svg>
